<svg viewBox="0 0 64 64" xmlns="http://www.w3.org/2000/svg"><path d="M6 2h16v26H2V6a4 4 0 0 1 4-4Z" fill="#006c49" class="fill-a2d0ff"></path><path d="M22 30H2a2 2 0 0 1-2-2V6a6 6 0 0 1 6-6h16a2 2 0 0 1 2 2v26a2 2 0 0 1-2 2ZM4 26h16V4H6a2 2 0 0 0-2 2Z" fill="#006c49" class="fill-2e58ff"></path><path d="M30 2h28a4 4 0 0 1 4 4v22H30V2Z" fill="#006c49" class="fill-8bc4ff"></path><path d="M62 30H30a2 2 0 0 1-2-2V2a2 2 0 0 1 2-2h28a6 6 0 0 1 6 6v22a2 2 0 0 1-2 2Zm-30-4h28V6a2 2 0 0 0-2-2H32Z" fill="#006c49" class="fill-2e58ff"></path><path d="M46 36h16v26H42V40a4 4 0 0 1 4-4Z" transform="rotate(-180 52 49)" fill="#006c49" class="fill-a2d0ff"></path><path d="M58 64H42a2 2 0 0 1-2-2V36a2 2 0 0 1 2-2h20a2 2 0 0 1 2 2v22a6 6 0 0 1-6 6Zm-14-4h14a2 2 0 0 0 2-2V38H44Z" fill="#006c49" class="fill-2e58ff"></path><path d="M2 36h28a4 4 0 0 1 4 4v22H2V36Z" transform="rotate(-180 18 49)" fill="#006c49" class="fill-8bc4ff"></path><path d="M34 64H6a6 6 0 0 1-6-6V36a2 2 0 0 1 2-2h32a2 2 0 0 1 2 2v26a2 2 0 0 1-2 2ZM4 38v20a2 2 0 0 0 2 2h26V38Z" fill="#006c49" class="fill-2e58ff"></path></svg>